<svg width="300" height="345" xmlns="http://www.w3.org/2000/svg">
    <style>
        .lang-name { font: 600 12px 'Segoe UI', Ubuntu, Sans-Serif; fill: #333; }
        .lang-percent { font: 400 11px 'Segoe UI', Ubuntu, Sans-Serif; fill: #555; }
        .progress-bar { border-radius: 4px; }
    </style>
    <rect width="100%" height="100%" fill="#f9f9f9" stroke="#e1e4e8" stroke-width="1" rx="6" ry="6"/>
    <g transform="translate(15, 20)">

        <text x="0" y="12" class="lang-name">Dockerfile</text>
        <text x="270" y="12" text-anchor="end" class="lang-percent">52.9%</text>
    
        <rect x="0" y="18" width="270" height="8" fill="#ddd" rx="4" ry="4" class="progress-bar"/>
        <rect x="0" y="18" width="142.93169054110032" height="8" fill="#3498db" rx="4" ry="4" class="progress-bar"/>
    
        <text x="0" y="47" class="lang-name">HCL</text>
        <text x="270" y="47" text-anchor="end" class="lang-percent">12.9%</text>
    
        <rect x="0" y="53" width="270" height="8" fill="#ddd" rx="4" ry="4" class="progress-bar"/>
        <rect x="0" y="53" width="34.879150731646234" height="8" fill="#2ecc71" rx="4" ry="4" class="progress-bar"/>
    
        <text x="0" y="82" class="lang-name">PowerShell</text>
        <text x="270" y="82" text-anchor="end" class="lang-percent">9.6%</text>
    
        <rect x="0" y="88" width="270" height="8" fill="#ddd" rx="4" ry="4" class="progress-bar"/>
        <rect x="0" y="88" width="25.869353704470797" height="8" fill="#f1c40f" rx="4" ry="4" class="progress-bar"/>
    
        <text x="0" y="117" class="lang-name">Shell</text>
        <text x="270" y="117" text-anchor="end" class="lang-percent">9.3%</text>
    
        <rect x="0" y="123" width="270" height="8" fill="#ddd" rx="4" ry="4" class="progress-bar"/>
        <rect x="0" y="123" width="25.086458523991634" height="8" fill="#e74c3c" rx="4" ry="4" class="progress-bar"/>
    
        <text x="0" y="152" class="lang-name">JavaScript</text>
        <text x="270" y="152" text-anchor="end" class="lang-percent">6.3%</text>
    
        <rect x="0" y="158" width="270" height="8" fill="#ddd" rx="4" ry="4" class="progress-bar"/>
        <rect x="0" y="158" width="16.908975309950197" height="8" fill="#9b59b6" rx="4" ry="4" class="progress-bar"/>
    
        <text x="0" y="187" class="lang-name">Smarty</text>
        <text x="270" y="187" text-anchor="end" class="lang-percent">4.8%</text>
    
        <rect x="0" y="193" width="270" height="8" fill="#ddd" rx="4" ry="4" class="progress-bar"/>
        <rect x="0" y="193" width="12.874854296916395" height="8" fill="#1abc9c" rx="4" ry="4" class="progress-bar"/>
    
        <text x="0" y="222" class="lang-name">HTML</text>
        <text x="270" y="222" text-anchor="end" class="lang-percent">3.4%</text>
    
        <rect x="0" y="228" width="270" height="8" fill="#ddd" rx="4" ry="4" class="progress-bar"/>
        <rect x="0" y="228" width="9.243885287119367" height="8" fill="#3498db" rx="4" ry="4" class="progress-bar"/>
    
        <text x="0" y="257" class="lang-name">Python</text>
        <text x="270" y="257" text-anchor="end" class="lang-percent">0.5%</text>
    
        <rect x="0" y="263" width="270" height="8" fill="#ddd" rx="4" ry="4" class="progress-bar"/>
        <rect x="0" y="263" width="1.3863226950013006" height="8" fill="#2ecc71" rx="4" ry="4" class="progress-bar"/>
    
        <text x="0" y="292" class="lang-name">Java</text>
        <text x="270" y="292" text-anchor="end" class="lang-percent">0.3%</text>
    
        <rect x="0" y="298" width="270" height="8" fill="#ddd" rx="4" ry="4" class="progress-bar"/>
        <rect x="0" y="298" width="0.8193089098037706" height="8" fill="#f1c40f" rx="4" ry="4" class="progress-bar"/>
    
    </g>
</svg>