<svg width="300" height="345" xmlns="http://www.w3.org/2000/svg">
    <style>
        .lang-name { font: 600 12px 'Segoe UI', Ubuntu, Sans-Serif; fill: #333; }
        .lang-percent { font: 400 11px 'Segoe UI', Ubuntu, Sans-Serif; fill: #555; }
        .progress-bar { border-radius: 4px; }
    </style>
    <rect width="100%" height="100%" fill="#f9f9f9" stroke="#e1e4e8" stroke-width="1" rx="6" ry="6"/>
    <g transform="translate(15, 20)">

        <text x="0" y="12" class="lang-name">Dockerfile</text>
        <text x="270" y="12" text-anchor="end" class="lang-percent">51.0%</text>
    
        <rect x="0" y="18" width="270" height="8" fill="#ddd" rx="4" ry="4" class="progress-bar"/>
        <rect x="0" y="18" width="137.77486549868948" height="8" fill="#3498db" rx="4" ry="4" class="progress-bar"/>
    
        <text x="0" y="47" class="lang-name">HCL</text>
        <text x="270" y="47" text-anchor="end" class="lang-percent">13.7%</text>
    
        <rect x="0" y="53" width="270" height="8" fill="#ddd" rx="4" ry="4" class="progress-bar"/>
        <rect x="0" y="53" width="36.95599393019727" height="8" fill="#2ecc71" rx="4" ry="4" class="progress-bar"/>
    
        <text x="0" y="82" class="lang-name">PowerShell</text>
        <text x="270" y="82" text-anchor="end" class="lang-percent">9.1%</text>
    
        <rect x="0" y="88" width="270" height="8" fill="#ddd" rx="4" ry="4" class="progress-bar"/>
        <rect x="0" y="88" width="24.69692371361567" height="8" fill="#f1c40f" rx="4" ry="4" class="progress-bar"/>
    
        <text x="0" y="117" class="lang-name">Shell</text>
        <text x="270" y="117" text-anchor="end" class="lang-percent">8.9%</text>
    
        <rect x="0" y="123" width="270" height="8" fill="#ddd" rx="4" ry="4" class="progress-bar"/>
        <rect x="0" y="123" width="23.949510277279625" height="8" fill="#e74c3c" rx="4" ry="4" class="progress-bar"/>
    
        <text x="0" y="152" class="lang-name">JavaScript</text>
        <text x="270" y="152" text-anchor="end" class="lang-percent">6.0%</text>
    
        <rect x="0" y="158" width="270" height="8" fill="#ddd" rx="4" ry="4" class="progress-bar"/>
        <rect x="0" y="158" width="16.142640364188168" height="8" fill="#9b59b6" rx="4" ry="4" class="progress-bar"/>
    
        <text x="0" y="187" class="lang-name">Smarty</text>
        <text x="270" y="187" text-anchor="end" class="lang-percent">4.6%</text>
    
        <rect x="0" y="193" width="270" height="8" fill="#ddd" rx="4" ry="4" class="progress-bar"/>
        <rect x="0" y="193" width="12.291350531107739" height="8" fill="#1abc9c" rx="4" ry="4" class="progress-bar"/>
    
        <text x="0" y="222" class="lang-name">HTML</text>
        <text x="270" y="222" text-anchor="end" class="lang-percent">3.3%</text>
    
        <rect x="0" y="228" width="270" height="8" fill="#ddd" rx="4" ry="4" class="progress-bar"/>
        <rect x="0" y="228" width="8.824941371223618" height="8" fill="#3498db" rx="4" ry="4" class="progress-bar"/>
    
        <text x="0" y="257" class="lang-name">Python</text>
        <text x="270" y="257" text-anchor="end" class="lang-percent">3.2%</text>
    
        <rect x="0" y="263" width="270" height="8" fill="#ddd" rx="4" ry="4" class="progress-bar"/>
        <rect x="0" y="263" width="8.581597461718859" height="8" fill="#2ecc71" rx="4" ry="4" class="progress-bar"/>
    
        <text x="0" y="292" class="lang-name">Java</text>
        <text x="270" y="292" text-anchor="end" class="lang-percent">0.3%</text>
    
        <rect x="0" y="298" width="270" height="8" fill="#ddd" rx="4" ry="4" class="progress-bar"/>
        <rect x="0" y="298" width="0.7821768519795835" height="8" fill="#f1c40f" rx="4" ry="4" class="progress-bar"/>
    
    </g>
</svg>